<svg width="19" height="18" viewBox="0 0 19 18" fill="none" xmlns="http://www.w3.org/2000/svg">
<path d="M9.04167 7.74874C7.97647 7.74874 7.06412 7.36899 6.30462 6.60949C5.54512 5.84999 5.16581 4.93808 5.16667 3.87374C5.16753 2.80941 5.54685 1.89663 6.30462 1.13541C7.0624 0.374189 7.97475 -0.00426923 9.04167 3.63236e-05C10.1086 0.00434188 11.0209 0.38323 11.7787 1.1367C12.5365 1.89017 12.9158 2.80295 12.9167 3.87504C12.9175 4.94712 12.5382 5.85904 11.7787 6.61079C11.0192 7.36254 10.1069 7.74099 9.04167 7.74874ZM0 17.0888V14.9627C0 14.4297 0.155 13.9311 0.465 13.467C0.775861 13.002 1.1935 12.6411 1.71792 12.3845C2.93725 11.7998 4.15744 11.3615 5.3785 11.0696C6.59869 10.7768 7.81975 10.6305 9.04167 10.6305C10.2636 10.6305 11.4851 10.7768 12.7061 11.0696C13.9272 11.3624 15.1465 11.8007 16.3641 12.3845C16.8894 12.6411 17.307 13.002 17.617 13.467C17.9279 13.9311 18.0833 14.4297 18.0833 14.9627V17.0888H0Z" fill="#A7ABC3"/>
</svg>
