<svg width="15" height="16" viewBox="0 0 15 16" fill="none" xmlns="http://www.w3.org/2000/svg">
<path d="M12.75 1.87889H11.25V1.11925C11.25 0.917785 11.171 0.724569 11.0303 0.58211C10.8897 0.439652 10.6989 0.359619 10.5 0.359619C10.3011 0.359619 10.1103 0.439652 9.96967 0.58211C9.82902 0.724569 9.75 0.917785 9.75 1.11925V1.87889H5.25V1.11925C5.25 0.917785 5.17098 0.724569 5.03033 0.58211C4.88968 0.439652 4.69891 0.359619 4.5 0.359619C4.30109 0.359619 4.11032 0.439652 3.96967 0.58211C3.82902 0.724569 3.75 0.917785 3.75 1.11925V1.87889H2.25C1.65326 1.87889 1.08097 2.11898 0.65901 2.54636C0.237053 2.97374 0 3.55338 0 4.15778V13.2734C0 13.8778 0.237053 14.4574 0.65901 14.8848C1.08097 15.3122 1.65326 15.5523 2.25 15.5523H12.75C13.3467 15.5523 13.919 15.3122 14.341 14.8848C14.7629 14.4574 15 13.8778 15 13.2734V4.15778C15 3.55338 14.7629 2.97374 14.341 2.54636C13.919 2.11898 13.3467 1.87889 12.75 1.87889ZM13.5 13.2734C13.5 13.4748 13.421 13.6681 13.2803 13.8105C13.1397 13.953 12.9489 14.033 12.75 14.033H2.25C2.05109 14.033 1.86032 13.953 1.71967 13.8105C1.57902 13.6681 1.5 13.4748 1.5 13.2734V7.95595H13.5V13.2734ZM13.5 6.43668H1.5V4.15778C1.5 3.95632 1.57902 3.7631 1.71967 3.62064C1.86032 3.47818 2.05109 3.39815 2.25 3.39815H3.75V4.15778C3.75 4.35925 3.82902 4.55247 3.96967 4.69493C4.11032 4.83738 4.30109 4.91742 4.5 4.91742C4.69891 4.91742 4.88968 4.83738 5.03033 4.69493C5.17098 4.55247 5.25 4.35925 5.25 4.15778V3.39815H9.75V4.15778C9.75 4.35925 9.82902 4.55247 9.96967 4.69493C10.1103 4.83738 10.3011 4.91742 10.5 4.91742C10.6989 4.91742 10.8897 4.83738 11.0303 4.69493C11.171 4.55247 11.25 4.35925 11.25 4.15778V3.39815H12.75C12.9489 3.39815 13.1397 3.47818 13.2803 3.62064C13.421 3.7631 13.5 3.95632 13.5 4.15778V6.43668Z" fill="#1565C0"/>
</svg>
