<svg width="12" height="12" viewBox="0 0 12 12" fill="none" xmlns="http://www.w3.org/2000/svg">
<path d="M1.04348 8.99994C1.04348 9.63455 1.51174 10.1538 2.08696 10.1538C2.21286 10.1513 2.33687 10.1262 2.45145 10.08C2.56603 10.0337 2.66879 9.96739 2.75348 9.88494C2.8496 9.79833 2.98043 9.74871 3.11761 9.74681C3.2548 9.74491 3.38731 9.79089 3.48645 9.8748C3.58559 9.95871 3.64338 10.0738 3.6473 10.1951C3.65122 10.3164 3.60095 10.4342 3.50739 10.523C3.32572 10.696 3.10603 10.8344 2.86178 10.9296C2.61753 11.0248 2.35387 11.075 2.08696 11.0769C0.93587 11.0769 0 10.1451 0 8.99994C0 7.85475 0.93587 6.92302 2.08696 6.92302C2.35387 6.92493 2.61753 6.97504 2.86178 7.07027C3.10603 7.16551 3.32572 7.30387 3.50739 7.47686C3.60095 7.56564 3.65122 7.68345 3.6473 7.80477C3.64338 7.9261 3.58559 8.04117 3.48645 8.12508C3.38731 8.20898 3.2548 8.25497 3.11761 8.25307C2.98043 8.25117 2.8496 8.20155 2.75348 8.11494C2.66879 8.03249 2.56603 7.96614 2.45145 7.91993C2.33687 7.87371 2.21286 7.84859 2.08696 7.84609C1.51174 7.84609 1.04348 8.36532 1.04348 8.99994ZM12 3.69225V11.0769C12 11.3217 11.8901 11.5565 11.6944 11.7296C11.4987 11.9027 11.2333 11.9999 10.9565 11.9999H5.73913C5.60076 11.9999 5.46805 11.9513 5.37021 11.8648C5.27236 11.7782 5.21739 11.6608 5.21739 11.5384C5.21739 11.416 5.27236 11.2986 5.37021 11.212C5.46805 11.1255 5.60076 11.0769 5.73913 11.0769H10.9565V4.15379H7.82609C7.68771 4.15379 7.55501 4.10516 7.45716 4.0186C7.35932 3.93205 7.30435 3.81465 7.30435 3.69225V0.923016H1.56522V5.07686C1.56522 5.19927 1.51025 5.31666 1.4124 5.40322C1.31456 5.48977 1.18185 5.5384 1.04348 5.5384C0.905104 5.5384 0.772398 5.48977 0.674553 5.40322C0.576708 5.31666 0.521739 5.19927 0.521739 5.07686V0.923016C0.521739 0.678201 0.631677 0.443413 0.827367 0.270302C1.02306 0.0971915 1.28847 -6.08924e-05 1.56522 -6.08924e-05H7.82609C7.89462 -0.000108567 7.9625 0.0117893 8.02584 0.0349531C8.08917 0.0581168 8.14673 0.0920925 8.19522 0.134939L11.8474 3.36571C11.8958 3.4086 11.9342 3.45952 11.9604 3.51555C11.9866 3.57158 12.0001 3.63162 12 3.69225ZM8.34783 3.23071H10.2189L8.34783 1.57552V3.23071Z" fill="#013B6F"/>
</svg>
