<svg width="30" height="26" viewBox="0 0 30 26" fill="none" xmlns="http://www.w3.org/2000/svg">
<path d="M1.6665 3.66667C1.6665 2.95942 1.94746 2.28115 2.44755 1.78105C2.94765 1.28095 3.62593 1 4.33317 1H12.3332V25H4.33317C3.62593 25 2.94765 24.719 2.44755 24.219C1.94746 23.7189 1.6665 23.0406 1.6665 22.3333V3.66667ZM17.6665 1H25.6665C26.3737 1 27.052 1.28095 27.5521 1.78105C28.0522 2.28115 28.3332 2.95942 28.3332 3.66667V10.3333H17.6665V1ZM17.6665 15.6667H28.3332V22.3333C28.3332 23.0406 28.0522 23.7189 27.5521 24.219C27.052 24.719 26.3737 25 25.6665 25H17.6665V15.6667Z" stroke="#A7ABC3" stroke-width="2" stroke-linecap="round" stroke-linejoin="round"/>
</svg>
