<svg width="30" height="26" viewBox="0 0 30 26" fill="none" xmlns="http://www.w3.org/2000/svg">
<path d="M1.66663 3.66667C1.66663 2.95942 1.94758 2.28115 2.44767 1.78105C2.94777 1.28095 3.62605 1 4.33329 1H12.3333V25H4.33329C3.62605 25 2.94777 24.719 2.44767 24.219C1.94758 23.7189 1.66663 23.0406 1.66663 22.3333V3.66667ZM17.6666 1H25.6666C26.3739 1 27.0521 1.28095 27.5522 1.78105C28.0523 2.28115 28.3333 2.95942 28.3333 3.66667V10.3333H17.6666V1ZM17.6666 15.6667H28.3333V22.3333C28.3333 23.0406 28.0523 23.7189 27.5522 24.219C27.0521 24.719 26.3739 25 25.6666 25H17.6666V15.6667Z" fill="#1565C0" stroke="#1565C0" stroke-width="2" stroke-linecap="round" stroke-linejoin="round"/>
</svg>
