<svg width="17" height="13" viewBox="0 0 17 13" fill="none" xmlns="http://www.w3.org/2000/svg">
<mask id="path-1-inside-1_9_142" fill="white">
<path d="M2.68421 0H14.3158C15.0277 0 15.7104 0.273928 16.2138 0.761522C16.7172 1.24912 17 1.91044 17 2.6V10.4C17 11.0896 16.7172 11.7509 16.2138 12.2385C15.7104 12.7261 15.0277 13 14.3158 13H2.68421C1.97231 13 1.28957 12.7261 0.786187 12.2385C0.2828 11.7509 0 11.0896 0 10.4V2.6C0 1.91044 0.2828 1.24912 0.786187 0.761522C1.28957 0.273928 1.97231 0 2.68421 0ZM2.68421 0.866667C2.23684 0.866667 1.84316 1.014 1.53895 1.274L8.5 5.63333L15.4611 1.274C15.1568 1.014 14.7632 0.866667 14.3158 0.866667H2.68421ZM8.5 6.682L1.01105 1.976C0.939474 2.16667 0.894737 2.38333 0.894737 2.6V10.4C0.894737 10.8597 1.08327 11.3006 1.41886 11.6257C1.75445 11.9507 2.20961 12.1333 2.68421 12.1333H14.3158C14.7904 12.1333 15.2455 11.9507 15.5811 11.6257C15.9167 11.3006 16.1053 10.8597 16.1053 10.4V2.6C16.1053 2.38333 16.0605 2.16667 15.9889 1.976L8.5 6.682Z"/>
</mask>
<path d="M2.68421 0V-1V0ZM17 2.6H18H17ZM17 10.4H18H17ZM14.3158 13V14V13ZM2.68421 13V14V13ZM0 10.4L-1 10.4L0 10.4ZM0 2.6H-1H0ZM1.53895 1.274L0.88924 0.513816L-0.146075 1.39867L1.00819 2.12152L1.53895 1.274ZM8.5 5.63333L7.96924 6.48086L8.5 6.81324L9.03076 6.48086L8.5 5.63333ZM15.4611 1.274L15.9918 2.12152L17.1461 1.39867L16.1108 0.513816L15.4611 1.274ZM8.5 6.682L7.96794 7.5287L8.5 7.86305L9.03206 7.5287L8.5 6.682ZM1.01105 1.976L1.54312 1.1293L0.505543 0.477292L0.074851 1.62454L1.01105 1.976ZM0.894737 10.4L-0.105263 10.4L0.894737 10.4ZM15.9889 1.976L16.9251 1.62454L16.4945 0.477292L15.4569 1.1293L15.9889 1.976ZM2.68421 1H14.3158V-1H2.68421V1ZM14.3158 1C14.7726 1 15.2045 1.17606 15.5181 1.47981L16.9096 0.0432383C16.2164 -0.628207 15.2828 -1 14.3158 -1V1ZM15.5181 1.47981C15.8306 1.7825 16 2.18612 16 2.6L18 2.6C18 1.63475 17.6038 0.715734 16.9096 0.0432383L15.5181 1.47981ZM16 2.6V10.4H18V2.6H16ZM16 10.4C16 10.8139 15.8306 11.2175 15.5181 11.5202L16.9096 12.9568C17.6038 12.2843 18 11.3653 18 10.4L16 10.4ZM15.5181 11.5202C15.2045 11.8239 14.7726 12 14.3158 12V14C15.2828 14 16.2164 13.6282 16.9096 12.9568L15.5181 11.5202ZM14.3158 12H2.68421V14H14.3158V12ZM2.68421 12C2.22743 12 1.79552 11.8239 1.48194 11.5202L0.0904373 12.9568C0.78363 13.6282 1.7172 14 2.68421 14V12ZM1.48194 11.5202C1.16944 11.2175 1 10.8139 1 10.4L-1 10.4C-1 11.3653 -0.603839 12.2843 0.0904373 12.9568L1.48194 11.5202ZM1 10.4V2.6H-1V10.4H1ZM1 2.6C1 2.18613 1.16944 1.7825 1.48194 1.47981L0.0904373 0.0432383C-0.603839 0.715733 -1 1.63475 -1 2.6L1 2.6ZM1.48194 1.47981C1.79552 1.17606 2.22743 1 2.68421 1V-1C1.7172 -1 0.78363 -0.628207 0.0904373 0.0432383L1.48194 1.47981ZM2.68421 -0.133333C2.00964 -0.133333 1.38275 0.0920302 0.88924 0.513816L2.18865 2.03418C2.30357 1.93597 2.46404 1.86667 2.68421 1.86667V-0.133333ZM1.00819 2.12152L7.96924 6.48086L9.03076 4.78581L2.06971 0.426477L1.00819 2.12152ZM9.03076 6.48086L15.9918 2.12152L14.9303 0.426477L7.96924 4.78581L9.03076 6.48086ZM16.1108 0.513816C15.6173 0.0920299 14.9904 -0.133333 14.3158 -0.133333V1.86667C14.536 1.86667 14.6964 1.93597 14.8113 2.03418L16.1108 0.513816ZM14.3158 -0.133333H2.68421V1.86667H14.3158V-0.133333ZM9.03206 5.8353L1.54312 1.1293L0.47899 2.82271L7.96794 7.5287L9.03206 5.8353ZM0.074851 1.62454C-0.0341635 1.91492 -0.105263 2.25048 -0.105263 2.6H1.89474C1.89474 2.51618 1.91311 2.41841 1.94725 2.32746L0.074851 1.62454ZM-0.105263 2.6V10.4H1.89474V2.6H-0.105263ZM-0.105263 10.4C-0.105263 11.1354 0.196631 11.834 0.723112 12.3439L2.11461 10.9074C1.96991 10.7672 1.89474 10.584 1.89474 10.4L-0.105263 10.4ZM0.723112 12.3439C1.24851 12.8528 1.9545 13.1333 2.68421 13.1333V11.1333C2.46473 11.1333 2.2604 11.0486 2.11461 10.9074L0.723112 12.3439ZM2.68421 13.1333H14.3158V11.1333H2.68421V13.1333ZM14.3158 13.1333C15.0455 13.1333 15.7515 12.8528 16.2769 12.3439L14.8854 10.9074C14.7396 11.0486 14.5353 11.1333 14.3158 11.1333V13.1333ZM16.2769 12.3439C16.8034 11.834 17.1053 11.1354 17.1053 10.4H15.1053C15.1053 10.584 15.0301 10.7672 14.8854 10.9074L16.2769 12.3439ZM17.1053 10.4V2.6H15.1053V10.4H17.1053ZM17.1053 2.6C17.1053 2.25049 17.0342 1.91492 16.9251 1.62454L15.0527 2.32746C15.0869 2.41841 15.1053 2.51618 15.1053 2.6H17.1053ZM15.4569 1.1293L7.96794 5.8353L9.03206 7.5287L16.521 2.82271L15.4569 1.1293Z" fill="#A7ABC3" mask="url(#path-1-inside-1_9_142)"/>
</svg>
