<svg width="17" height="13" viewBox="0 0 17 13" fill="none" xmlns="http://www.w3.org/2000/svg">
<mask id="path-1-inside-1_68_2198" fill="white">
<path d="M2.68421 0H14.3158C15.0277 0 15.7104 0.273928 16.2138 0.761522C16.7172 1.24912 17 1.91044 17 2.6V10.4C17 11.0896 16.7172 11.7509 16.2138 12.2385C15.7104 12.7261 15.0277 13 14.3158 13H2.68421C1.97231 13 1.28957 12.7261 0.786187 12.2385C0.2828 11.7509 0 11.0896 0 10.4V2.6C0 1.91044 0.2828 1.24912 0.786187 0.761522C1.28957 0.273928 1.97231 0 2.68421 0ZM2.68421 0.866667C2.23684 0.866667 1.84316 1.014 1.53895 1.274L8.5 5.63333L15.4611 1.274C15.1568 1.014 14.7632 0.866667 14.3158 0.866667H2.68421ZM8.5 6.682L1.01105 1.976C0.939474 2.16667 0.894737 2.38333 0.894737 2.6V10.4C0.894737 10.8597 1.08327 11.3006 1.41886 11.6257C1.75445 11.9507 2.20961 12.1333 2.68421 12.1333H14.3158C14.7904 12.1333 15.2455 11.9507 15.5811 11.6257C15.9167 11.3006 16.1053 10.8597 16.1053 10.4V2.6C16.1053 2.38333 16.0605 2.16667 15.9889 1.976L8.5 6.682Z"/>
</mask>
<path d="M2.68421 0V-4V0ZM17 2.6H21H17ZM17 10.4H21H17ZM14.3158 13V17V13ZM2.68421 13V17V13ZM0 10.4L-4 10.4L0 10.4ZM0 2.6H-4H0ZM1.53895 1.274L-1.05988 -1.76674L-5.20114 1.77268L-0.584086 4.66409L1.53895 1.274ZM8.5 5.63333L6.37697 9.02343L8.5 10.353L10.623 9.02343L8.5 5.63333ZM15.4611 1.274L17.5841 4.66409L22.2011 1.77268L18.0599 -1.76674L15.4611 1.274ZM8.5 6.682L6.37175 10.0688L8.5 11.4062L10.6283 10.0688L8.5 6.682ZM1.01105 1.976L3.13931 -1.41082L-1.01099 -4.01883L-2.73375 0.570147L1.01105 1.976ZM0.894737 10.4L-3.10526 10.4L0.894737 10.4ZM15.9889 1.976L19.7338 0.570147L18.011 -4.01883L13.8607 -1.41082L15.9889 1.976ZM2.68421 4H14.3158V-4H2.68421V4ZM14.3158 4C14.0072 4 13.6866 3.88247 13.4308 3.63466L18.9968 -2.11161C17.7342 -3.33461 16.0481 -4 14.3158 -4V4ZM13.4308 3.63466C13.1706 3.38265 13 3.01319 13 2.6L21 2.6C21 0.807686 20.2638 -0.884417 18.9968 -2.11161L13.4308 3.63466ZM13 2.6V10.4H21V2.6H13ZM13 10.4C13 9.98681 13.1706 9.61735 13.4308 9.36534L18.9968 15.1116C20.2638 13.8844 21 12.1923 21 10.4L13 10.4ZM13.4308 9.36534C13.6867 9.11753 14.0072 9 14.3158 9V17C16.0481 17 17.7342 16.3346 18.9968 15.1116L13.4308 9.36534ZM14.3158 9H2.68421V17H14.3158V9ZM2.68421 9C2.99277 9 3.31335 9.11753 3.56919 9.36534L-1.99681 15.1116C-0.734202 16.3346 0.95186 17 2.68421 17V9ZM3.56919 9.36534C3.82936 9.61735 4 9.98681 4 10.4L-4 10.4C-4 12.1923 -3.26376 13.8844 -1.99681 15.1116L3.56919 9.36534ZM4 10.4V2.6H-4V10.4H4ZM4 2.6C4 3.01319 3.82936 3.38265 3.56919 3.63466L-1.99681 -2.11161C-3.26376 -0.884418 -4 0.807685 -4 2.6L4 2.6ZM3.56919 3.63466C3.31335 3.88247 2.99277 4 2.68421 4V-4C0.951858 -4 -0.734203 -3.33461 -1.99681 -2.11161L3.56919 3.63466ZM2.68421 -3.13333C1.32804 -3.13333 0.00150941 -2.67388 -1.05988 -1.76674L4.13778 4.31474C3.68481 4.70188 3.14565 4.86667 2.68421 4.86667V-3.13333ZM-0.584086 4.66409L6.37697 9.02343L10.623 2.24324L3.66198 -2.11609L-0.584086 4.66409ZM10.623 9.02343L17.5841 4.66409L13.338 -2.11609L6.37697 2.24324L10.623 9.02343ZM18.0599 -1.76674C16.9985 -2.67388 15.672 -3.13333 14.3158 -3.13333V4.86667C13.8544 4.86667 13.3152 4.70188 12.8622 4.31474L18.0599 -1.76674ZM14.3158 -3.13333H2.68421V4.86667H14.3158V-3.13333ZM10.6283 3.29518L3.13931 -1.41082L-1.1172 5.36282L6.37175 10.0688L10.6283 3.29518ZM-2.73375 0.570147C-2.95508 1.15969 -3.10526 1.85194 -3.10526 2.6H4.89474C4.89474 2.91473 4.83402 3.17365 4.75586 3.38185L-2.73375 0.570147ZM-3.10526 2.6V10.4H4.89474V2.6H-3.10526ZM-3.10526 10.4C-3.10526 11.9625 -2.46329 13.4341 -1.36414 14.4988L4.20186 8.75251C4.62983 9.16705 4.89474 9.75696 4.89474 10.4L-3.10526 10.4ZM-1.36414 14.4988C-0.269325 15.5593 1.18916 16.1333 2.68421 16.1333V8.13333C3.23007 8.13333 3.77823 8.34218 4.20186 8.75251L-1.36414 14.4988ZM2.68421 16.1333H14.3158V8.13333H2.68421V16.1333ZM14.3158 16.1333C15.8108 16.1333 17.2693 15.5593 18.3641 14.4988L12.7981 8.75251C13.2218 8.34218 13.7699 8.13333 14.3158 8.13333V16.1333ZM18.3641 14.4988C19.4633 13.4341 20.1053 11.9625 20.1053 10.4H12.1053C12.1053 9.75695 12.3702 9.16705 12.7981 8.75251L18.3641 14.4988ZM20.1053 10.4V2.6H12.1053V10.4H20.1053ZM20.1053 2.6C20.1053 1.85195 19.9551 1.1597 19.7338 0.570147L12.2441 3.38185C12.166 3.17364 12.1053 2.91472 12.1053 2.6H20.1053ZM13.8607 -1.41082L6.37175 3.29518L10.6283 10.0688L18.1172 5.36282L13.8607 -1.41082Z" fill="#1B1D29" mask="url(#path-1-inside-1_68_2198)"/>
</svg>
