<svg width="27" height="24" viewBox="0 0 27 24" fill="none" xmlns="http://www.w3.org/2000/svg">
<path d="M21.0337 11.0526H15.4956C13.7335 8.16935 13.4423 8.65287 12.9783 9.11861L8.9506 16.1296C8.15595 17.5801 8.53104 17.4996 8.9506 17.5802H18.2647C19.227 17.5802 18.5734 15.532 17.5095 15.4043C16.8382 15.3237 15.1575 15.4043 13.7335 15.4043C12.1837 15.4043 12.1786 15.3192 12.4748 14.679L13.7335 12.745H21.7889C22.1097 12.7166 22.852 12.8049 23.2548 13.3852C23.8719 14.2478 25.2686 16.2863 25.8166 17.5802C26.779 21.6049 23.7337 22.8466 21.7889 22.8988L4.8856 23C0.0523463 22.4198 0.606177 18.8901 1.90206 16.6131L9.70574 3.55814C11.9268 0.0884938 15.0194 0.571873 16.458 2.50602C17.7166 4.1983 20.2785 8.3933 21.0337 9.6021C21.6378 10.5691 21.2854 10.9721 21.0337 11.0526Z" fill="#CDA12C" stroke="#0B7342"/>
</svg>
