<svg width="20" height="20" viewBox="0 0 20 20" fill="none" xmlns="http://www.w3.org/2000/svg">
<path d="M14.1416 15.0468L15.1308 14.0684C16.1455 13.0537 16.8365 11.7608 17.1164 10.3533C17.3964 8.94583 17.2526 7.48695 16.7034 6.16115C16.1543 4.83535 15.2243 3.70218 14.031 2.90492C12.8378 2.10766 11.435 1.68213 9.99998 1.68213C8.56493 1.68213 7.16211 2.10766 5.96891 2.90492C4.7757 3.70218 3.8457 4.83535 3.29651 6.16115C2.74732 7.48695 2.6036 8.94583 2.88352 10.3533C3.16345 11.7608 3.85445 13.0537 4.86914 14.0684C5.11581 14.3151 5.42192 14.6179 5.78748 14.9768L8.69664 17.8068C9.04629 18.1448 9.51362 18.3338 9.99998 18.3338C10.4863 18.3338 10.9537 18.1448 11.3033 17.8068C12.2527 16.8902 13.1989 15.9702 14.1416 15.0468ZM9.99998 5.83343C10.1657 5.83343 10.3247 5.89927 10.4419 6.01649C10.5591 6.1337 10.625 6.29267 10.625 6.45843V8.33343H12.7083C12.8741 8.33343 13.033 8.39927 13.1503 8.51649C13.2675 8.6337 13.3333 8.79267 13.3333 8.95843C13.3333 9.12419 13.2675 9.28316 13.1503 9.40037C13.033 9.51758 12.8741 9.58343 12.7083 9.58343H10.625V11.4584C10.625 11.6242 10.5591 11.7832 10.4419 11.9004C10.3247 12.0176 10.1657 12.0834 9.99998 12.0834C9.83422 12.0834 9.67525 12.0176 9.55804 11.9004C9.44083 11.7832 9.37498 11.6242 9.37498 11.4584V9.58343H7.29164C7.12588 9.58343 6.96691 9.51758 6.8497 9.40037C6.73249 9.28316 6.66664 9.12419 6.66664 8.95843C6.66664 8.79267 6.73249 8.6337 6.8497 8.51649C6.96691 8.39927 7.12588 8.33343 7.29164 8.33343H9.37498V6.45843C9.37498 6.29267 9.44083 6.1337 9.55804 6.01649C9.67525 5.89927 9.83422 5.83343 9.99998 5.83343Z" fill="#699BF7"/>
<circle cx="10.5" cy="8.5" r="4.5" fill="#699BF7"/>
<path d="M9.99981 3.00024C6.68584 3.00024 4 5.68618 4 9.00006C4 12.3139 6.68594 14.9999 9.99981 14.9999C13.3137 14.9999 15.9992 12.3136 15.9994 8.99987C15.9994 5.68599 13.3137 3.00024 9.99981 3.00024ZM9.86341 4.89399V5.74899H10.1362V4.89399C11.2473 4.92559 12.308 5.36479 13.1163 6.12793L12.478 6.76703L12.6706 6.95996L13.3095 6.32115C14.0727 7.12939 14.512 8.19015 14.5436 9.30137H13.6886V9.57456H14.5469V10.5749H5.45163V9.57428H6.31075V9.30146H5.45594C5.48752 8.19021 5.92679 7.12941 6.69006 6.32115L7.32897 6.96006L7.52209 6.76712L6.88328 6.12803C7.69152 5.36477 8.75228 4.9255 9.8635 4.8939L9.86341 4.89399ZM9.75541 6.49187C9.01608 6.55309 8.3268 6.89007 7.82441 7.43592C7.32201 7.98177 7.04323 8.69657 7.04341 9.43843H12.9556C12.9557 9.02961 12.871 8.62521 12.7068 8.25079C12.5426 7.87637 12.3026 7.54007 12.0019 7.26315C11.7011 6.98623 11.3462 6.77471 10.9595 6.64195C10.5728 6.5092 10.1628 6.45809 9.75541 6.49187Z" fill="white"/>
</svg>
