<svg width="17" height="16" viewBox="0 0 17 16" fill="none" xmlns="http://www.w3.org/2000/svg">
<path d="M14.4335 9.02564H11.2916C10.8753 9.02563 10.4759 9.17953 10.1808 9.45367C9.8857 9.72781 9.71896 10.0999 9.71703 10.4884V13.4209C9.71703 13.8107 9.88292 14.1845 10.1782 14.4601C10.4735 14.7357 10.874 14.8905 11.2916 14.8905H14.4335C14.8497 14.8885 15.2481 14.7328 15.5417 14.4574C15.8352 14.182 16 13.8093 16 13.4209V10.4884C16 10.1007 15.835 9.72881 15.5412 9.45462C15.2474 9.18043 14.849 9.0264 14.4335 9.0264M5.70838 9.02564H2.56649C2.15021 9.02784 1.75179 9.18372 1.45827 9.45923C1.16475 9.73475 0.999993 10.1075 1 10.496V13.4284C1 13.8162 1.16504 14.1881 1.45881 14.4623C1.75259 14.7365 2.15103 14.8905 2.56649 14.8905H5.70838C6.12459 14.8905 6.52387 14.7367 6.81893 14.4627C7.11399 14.1888 7.28083 13.8169 7.28297 13.4284V10.496C7.28297 10.1062 7.11708 9.73244 6.82178 9.45684C6.52649 9.18123 6.12599 9.0264 5.70838 9.0264M5.70838 0.890503H2.56649C2.36077 0.890503 2.15707 0.92832 1.96702 1.0018C1.77696 1.07527 1.60428 1.18296 1.45881 1.31873C1.31335 1.45449 1.19796 1.61567 1.11924 1.79305C1.04052 1.97044 1 2.16056 1 2.35256V5.28499C0.999994 5.67345 1.16478 6.04611 1.45832 6.3215C1.75186 6.59689 2.15028 6.75261 2.56649 6.75461H5.70838C6.12599 6.75461 6.52649 6.59978 6.82178 6.32417C7.11708 6.04856 7.28297 5.67476 7.28297 5.28499V2.35256C7.28083 1.9641 7.11399 1.59224 6.81893 1.31827C6.52387 1.04429 6.12459 0.890498 5.70838 0.890503ZM14.4335 0.890503H11.2916C10.8754 0.890498 10.4761 1.04429 10.1811 1.31827C9.88601 1.59224 9.71917 1.9641 9.71703 2.35256V5.28499C9.71724 5.6747 9.88321 6.04838 10.1785 6.32395C10.4737 6.59951 10.8741 6.75441 11.2916 6.75461H14.4335C14.8497 6.75261 15.2481 6.59689 15.5417 6.3215C15.8352 6.04611 16 5.67345 16 5.28499V2.35256C16 1.9648 15.835 1.59292 15.5412 1.31873C15.2474 1.04454 14.849 0.890503 14.4335 0.890503Z" stroke="#013B6F" stroke-width="1.25" stroke-linecap="round" stroke-linejoin="round"/>
</svg>
