<svg width="17" height="19" viewBox="0 0 17 19" fill="none" xmlns="http://www.w3.org/2000/svg">
<path d="M7.21177 17.1243C7.11013 17.0528 7.01522 16.9733 6.92779 16.8868H10.0722C9.98478 16.9733 9.88986 17.0528 9.78823 17.1243C9.41178 17.3894 8.96181 17.5317 8.50033 17.5315H8.49967C8.03819 17.5317 7.58822 17.3894 7.21177 17.1243ZM2.30186 10.8343L2.30225 10.8335C2.41146 10.6152 2.46829 10.3745 2.46815 10.1304V6.78807C2.46815 5.1958 3.10307 3.66826 4.234 2.54162C5.36501 1.4149 6.89949 0.781494 8.5 0.781494C10.1005 0.781494 11.635 1.4149 12.766 2.54162C13.8969 3.66826 14.5318 5.1958 14.5318 6.78807V10.1304V10.1311C14.5321 10.3754 14.5894 10.6162 14.6992 10.8344C14.6992 10.8346 14.6993 10.8347 14.6993 10.8348L16.3309 14.0865L16.331 14.0866C16.3628 14.15 16.3778 14.2203 16.3746 14.2909L16.9989 14.3191L16.3746 14.2909C16.3714 14.3615 16.3501 14.4303 16.3127 14.4907L16.8437 14.8202L16.3127 14.4907C16.2752 14.5511 16.2226 14.6012 16.1598 14.6361L16.4632 15.1825L16.1598 14.6361C16.097 14.671 16.0261 14.6894 15.9539 14.6894H15.9538H1.04623H1.04614C0.973913 14.6894 0.903007 14.671 0.840181 14.6361C0.777367 14.6012 0.724825 14.5511 0.687337 14.4907L0.156253 14.8202L0.687336 14.4907C0.649859 14.4303 0.628608 14.3615 0.625421 14.2909C0.622234 14.2203 0.637197 14.15 0.669026 14.0866C0.669031 14.0866 0.669035 14.0866 0.66904 14.0866L2.30186 10.8343Z" stroke="#013B6F" stroke-width="1.25"/>
</svg>
