<svg width="20" height="20" viewBox="0 0 20 20" fill="none" xmlns="http://www.w3.org/2000/svg">
<path d="M7.50016 13.3333C7.50016 13.5543 7.41237 13.7663 7.25608 13.9226C7.0998 14.0789 6.88784 14.1667 6.66683 14.1667C6.44582 14.1667 6.23385 14.0789 6.07757 13.9226C5.92129 13.7663 5.8335 13.5543 5.8335 13.3333C5.8335 13.1123 5.92129 12.9004 6.07757 12.7441C6.23385 12.5878 6.44582 12.5 6.66683 12.5C6.88784 12.5 7.0998 12.5878 7.25608 12.7441C7.41237 12.9004 7.50016 13.1123 7.50016 13.3333ZM10.8335 13.3333C10.8335 13.5543 10.7457 13.7663 10.5894 13.9226C10.4331 14.0789 10.2212 14.1667 10.0002 14.1667C9.77915 14.1667 9.56719 14.0789 9.41091 13.9226C9.25463 13.7663 9.16683 13.5543 9.16683 13.3333C9.16683 13.1123 9.25463 12.9004 9.41091 12.7441C9.56719 12.5878 9.77915 12.5 10.0002 12.5C10.2212 12.5 10.4331 12.5878 10.5894 12.7441C10.7457 12.9004 10.8335 13.1123 10.8335 13.3333ZM13.3335 14.1667C13.5545 14.1667 13.7665 14.0789 13.9228 13.9226C14.079 13.7663 14.1668 13.5543 14.1668 13.3333C14.1668 13.1123 14.079 12.9004 13.9228 12.7441C13.7665 12.5878 13.5545 12.5 13.3335 12.5C13.1125 12.5 12.9005 12.5878 12.7442 12.7441C12.588 12.9004 12.5002 13.1123 12.5002 13.3333C12.5002 13.5543 12.588 13.7663 12.7442 13.9226C12.9005 14.0789 13.1125 14.1667 13.3335 14.1667Z" fill="#A7ABC3"/>
<path fill-rule="evenodd" clip-rule="evenodd" d="M4.37484 6.66669V7.75252C4.18567 7.76585 4.00817 7.78252 3.83984 7.80585C3.08984 7.90585 2.45817 8.12252 1.9565 8.62335C1.45484 9.12502 1.23984 9.75669 1.139 10.5067C1.0415 11.2292 1.0415 12.1484 1.0415 13.2875V13.3792C1.0415 14.5184 1.0415 15.4375 1.139 16.16C1.239 16.91 1.45567 17.5417 1.9565 18.0434C2.45817 18.545 3.08984 18.76 3.83984 18.8617C4.56234 18.9584 5.4815 18.9584 6.62067 18.9584H13.379C14.5182 18.9584 15.4373 18.9584 16.1598 18.8617C16.9098 18.76 17.5415 18.545 18.0432 18.0434C18.5448 17.5417 18.7598 16.91 18.8615 16.16C18.9582 15.4375 18.9582 14.5184 18.9582 13.3792V13.2875C18.9582 12.1484 18.9582 11.2292 18.8615 10.5067C18.7598 9.75669 18.5448 9.12502 18.0432 8.62335C17.5415 8.12169 16.9098 7.90669 16.1598 7.80585C15.9821 7.78245 15.8037 7.76466 15.6248 7.75252V6.66669C15.6248 5.17484 15.0322 3.7441 13.9773 2.68921C12.9224 1.63432 11.4917 1.04169 9.99984 1.04169C8.50799 1.04169 7.07725 1.63432 6.02236 2.68921C4.96747 3.7441 4.37484 5.17484 4.37484 6.66669ZM9.99984 2.29169C8.83951 2.29169 7.72672 2.75262 6.90624 3.57309C6.08577 4.39357 5.62484 5.50636 5.62484 6.66669V7.71085C5.93567 7.70835 6.26817 7.70835 6.62067 7.70835H13.379C13.7315 7.70835 14.064 7.70835 14.3748 7.71085V6.66669C14.3748 4.25002 12.4165 2.29169 9.99984 2.29169ZM4.0065 9.04419C3.39484 9.12669 3.0715 9.27752 2.84067 9.50752C2.60984 9.73835 2.45984 10.0617 2.37734 10.6742C2.29317 11.3034 2.2915 12.1375 2.2915 13.3334C2.2915 14.5292 2.29317 15.3634 2.37734 15.9934C2.45984 16.605 2.61067 16.9284 2.84067 17.1592C3.0715 17.39 3.39484 17.54 4.00734 17.6225C4.63567 17.7067 5.47067 17.7084 6.6665 17.7084H13.3332C14.529 17.7084 15.3632 17.7067 15.9932 17.6225C16.6048 17.54 16.9282 17.3892 17.159 17.1592C17.3898 16.9284 17.5398 16.605 17.6223 15.9925C17.7065 15.3634 17.7082 14.5292 17.7082 13.3334C17.7082 12.1375 17.7065 11.3025 17.6223 10.6734C17.5398 10.0617 17.389 9.73835 17.159 9.50752C16.9282 9.27669 16.6048 9.12669 15.9923 9.04419C15.3632 8.96002 14.529 8.95835 13.3332 8.95835H6.6665C5.47067 8.95835 4.63567 8.96002 4.0065 9.04419Z" fill="#A7ABC3"/>
</svg>
