<svg width="12" height="12" viewBox="0 0 12 12" fill="none" xmlns="http://www.w3.org/2000/svg">
<path d="M10.9091 -6.10352e-05H1.09091C0.801848 0.000888601 0.524872 0.127622 0.320474 0.35246C0.116075 0.577298 0.000863306 0.881971 0 1.19994L0.00218179 8.40234C0.00275836 8.71977 0.117648 9.02401 0.3217 9.24847C0.525751 9.47293 0.802338 9.59931 1.09091 9.59994H4.90909V10.7999L3.82036 10.8023L3.81818 11.9999H8.18182L8.184 10.8023L7.09091 10.7999V9.59994H10.9091C11.1982 9.59899 11.4751 9.47226 11.6795 9.24742C11.8839 9.02258 11.9991 8.71791 12 8.39994V1.19994C11.9991 0.881971 11.8839 0.577298 11.6795 0.35246C11.4751 0.127622 11.1982 0.000888601 10.9091 -6.10352e-05ZM10.9091 8.39994H1.09091V1.19994H10.9091V8.39994Z" fill="#013B6F"/>
</svg>
