<svg width="17" height="17" viewBox="0 0 17 17" fill="none" xmlns="http://www.w3.org/2000/svg">
<path fill-rule="evenodd" clip-rule="evenodd" d="M16.6667 8.33333C16.6667 12.9167 12.9167 16.6667 8.33333 16.6667C3.75 16.6667 0 12.9167 0 8.33333C0 3.75 3.75 0 8.33333 0C12.9167 0 16.6667 3.75 16.6667 8.33333ZM11.1335 5.53299C11.3776 5.77707 11.3776 6.1728 11.1335 6.41688L9.21715 8.33327L11.1335 10.2497C11.3776 10.4937 11.3776 10.8895 11.1335 11.1335C10.8895 11.3776 10.4937 11.3776 10.2497 11.1335L8.33327 9.21715L6.41688 11.1335C6.1728 11.3776 5.77707 11.3776 5.53299 11.1335C5.28892 10.8895 5.28892 10.4937 5.53299 10.2497L7.44938 8.33327L5.53299 6.41688C5.28892 6.1728 5.28892 5.77707 5.53299 5.53299C5.77707 5.28892 6.1728 5.28892 6.41688 5.53299L8.33327 7.44938L10.2497 5.53299C10.4937 5.28892 10.8895 5.28892 11.1335 5.53299Z" fill="#DCDEE9"/>
</svg>
