<svg width="12" height="12" viewBox="0 0 12 12" fill="none" xmlns="http://www.w3.org/2000/svg">
<path d="M11.8415 7.5253L10.9149 6.77525C10.9587 6.52077 10.9814 6.26093 10.9814 6.00109C10.9814 5.74125 10.9587 5.48141 10.9149 5.22693L11.8415 4.47687C11.9114 4.42023 11.9615 4.34478 11.985 4.26056C12.0085 4.17634 12.0043 4.08735 11.9731 4.00541L11.9604 3.97059C11.7053 3.29557 11.3233 2.66982 10.8328 2.12358L10.8074 2.09546C10.7479 2.02923 10.6686 1.98162 10.5799 1.95891C10.4913 1.93619 10.3974 1.93944 10.3108 1.96822L9.16057 2.3553C8.73615 2.02581 8.2622 1.76597 7.75006 1.58382L7.52794 0.445343C7.51118 0.35968 7.46729 0.280871 7.40209 0.219387C7.3369 0.157904 7.25348 0.116655 7.16293 0.101123L7.12473 0.0944262C6.38764 -0.0314754 5.61236 -0.0314754 4.87527 0.0944262L4.83707 0.101123C4.74652 0.116655 4.6631 0.157904 4.59791 0.219387C4.53271 0.280871 4.48882 0.35968 4.47206 0.445343L4.24853 1.58917C3.74047 1.77137 3.26735 2.03108 2.84791 2.35798L1.68923 1.96822C1.60259 1.93921 1.50869 1.93585 1.41999 1.95857C1.33129 1.9813 1.252 2.02904 1.19265 2.09546L1.16718 2.12358C0.677309 2.67021 0.295365 3.29586 0.0396161 3.97059L0.0268833 4.00541C-0.0367809 4.17283 0.0155652 4.36035 0.158456 4.47687L1.09644 5.23496C1.05258 5.48676 1.03136 5.74393 1.03136 5.99975C1.03136 6.25691 1.05258 6.51407 1.09644 6.76453L0.158456 7.52262C0.0885608 7.57927 0.0385359 7.65472 0.0150332 7.73893C-0.00846941 7.82315 -0.00433624 7.91214 0.0268833 7.99408L0.0396161 8.02891C0.295688 8.70395 0.674843 9.32676 1.16718 9.87591L1.19265 9.90404C1.25214 9.97027 1.33144 10.0179 1.42009 10.0406C1.50873 10.0633 1.60257 10.0601 1.68923 10.0313L2.84791 9.64152C3.26951 9.96967 3.74063 10.2295 4.24853 10.4103L4.47206 11.5542C4.48882 11.6398 4.53271 11.7186 4.59791 11.7801C4.6631 11.8416 4.74652 11.8828 4.83707 11.8984L4.87527 11.9051C5.61913 12.0316 6.38087 12.0316 7.12473 11.9051L7.16293 11.8984C7.25348 11.8828 7.3369 11.8416 7.40209 11.7801C7.46729 11.7186 7.51118 11.6398 7.52794 11.5542L7.75006 10.4157C8.26199 10.234 8.73861 9.97331 9.16057 9.6442L10.3108 10.0313C10.3974 10.0603 10.4913 10.0636 10.58 10.0409C10.6687 10.0182 10.748 9.97045 10.8074 9.90404L10.8328 9.87591C11.3252 9.32542 11.7043 8.70395 11.9604 8.02891L11.9731 7.99408C12.0368 7.82934 11.9844 7.64183 11.8415 7.5253ZM9.9104 5.38497C9.94577 5.58722 9.96416 5.79482 9.96416 6.00243C9.96416 6.21003 9.94577 6.41763 9.9104 6.61988L9.81702 7.15697L10.8738 8.01283C10.7136 8.36226 10.5114 8.69304 10.2712 8.99862L8.95826 8.55796L8.51403 8.90352C8.1759 9.16604 7.79957 9.3723 7.39212 9.51696L6.8531 9.70849L6.59986 11.0077C6.20029 11.0505 5.79688 11.0505 5.39731 11.0077L5.14407 9.70581L4.60929 9.5116C4.20608 9.36695 3.83117 9.16068 3.49587 8.8995L3.05164 8.5526L1.73025 8.99728C1.48975 8.69056 1.28885 8.35973 1.12757 8.01149L2.19571 7.14759L2.10375 6.61184C2.0698 6.41228 2.0514 6.20601 2.0514 6.00243C2.0514 5.7975 2.06838 5.59258 2.10375 5.39301L2.19571 4.85726L1.12757 3.99336C1.28743 3.64378 1.48975 3.31429 1.73025 3.00757L3.05164 3.45225L3.49587 3.10535C3.83117 2.84417 4.20608 2.63791 4.60929 2.49325L5.14548 2.30172L5.39873 0.999846C5.79627 0.956986 6.20231 0.956986 6.60127 0.999846L6.85452 2.29904L7.39354 2.49057C7.79957 2.63523 8.17732 2.84149 8.51544 3.10401L8.95968 3.44957L10.2726 3.00891C10.5131 3.31563 10.714 3.64646 10.8753 3.9947L9.81844 4.85056L9.9104 5.38497ZM6.00141 3.51118C4.62627 3.51118 3.51144 4.56661 3.51144 5.86849C3.51144 7.17036 4.62627 8.22579 6.00141 8.22579C7.37656 8.22579 8.49139 7.17036 8.49139 5.86849C8.49139 4.56661 7.37656 3.51118 6.00141 3.51118ZM7.1219 6.92928C6.97494 7.06881 6.80029 7.17945 6.60799 7.25485C6.4157 7.33024 6.20955 7.3689 6.00141 7.36859C5.5784 7.36859 5.18085 7.21188 4.88092 6.92928C4.73354 6.79014 4.61667 6.6248 4.53703 6.44275C4.45739 6.26069 4.41656 6.06553 4.41688 5.86849C4.41688 5.46801 4.58241 5.09165 4.88092 4.8077C5.18085 4.52375 5.5784 4.36838 6.00141 4.36838C6.42443 4.36838 6.82198 4.52375 7.1219 4.8077C7.26929 4.94683 7.38616 5.11218 7.4658 5.29423C7.54544 5.47628 7.58627 5.67144 7.58595 5.86849C7.58595 6.26896 7.42042 6.64533 7.1219 6.92928Z" fill="#013B6F"/>
</svg>
