<svg width="17" height="16" viewBox="0 0 17 16" fill="none" xmlns="http://www.w3.org/2000/svg">
<path d="M9.56499 12.0021C9.56499 12.2914 9.45308 12.5689 9.25389 12.7734C9.0547 12.978 8.78453 13.0929 8.50283 13.0929C8.22113 13.0929 7.95097 12.978 7.75177 12.7734C7.55258 12.5689 7.44068 12.2914 7.44068 12.0021C7.44068 11.7129 7.55258 11.4354 7.75177 11.2309C7.95097 11.0263 8.22113 10.9114 8.50283 10.9114C8.78453 10.9114 9.0547 11.0263 9.25389 11.2309C9.45308 11.4354 9.56499 11.7129 9.56499 12.0021ZM7.79473 8.72999C7.79473 8.92284 7.86933 9.10779 8.00213 9.24416C8.13492 9.38052 8.31503 9.45713 8.50283 9.45713C8.69063 9.45713 8.87074 9.38052 9.00354 9.24416C9.13633 9.10779 9.21094 8.92284 9.21094 8.72999V5.09425C9.21094 4.9014 9.13633 4.71645 9.00354 4.58008C8.87074 4.44371 8.69063 4.3671 8.50283 4.3671C8.31503 4.3671 8.13492 4.44371 8.00213 4.58008C7.86933 4.71645 7.79473 4.9014 7.79473 5.09425V8.72999ZM6.95775 0.930607C7.11143 0.648404 7.33562 0.413398 7.60721 0.249817C7.87881 0.0862361 8.18797 0 8.50283 0C8.81769 0 9.12686 0.0862361 9.39845 0.249817C9.67004 0.413398 9.89424 0.648404 10.0479 0.930607L16.7749 13.295C16.9255 13.5716 17.003 13.8837 16.9999 14.2006C16.9968 14.5174 16.9131 14.8279 16.7571 15.1012C16.6011 15.3746 16.3782 15.6014 16.1105 15.759C15.8429 15.9167 15.5398 15.9997 15.2312 16H1.77018C1.46151 16 1.15821 15.9171 0.890374 15.7596C0.622534 15.602 0.399464 15.3753 0.243295 15.1019C0.0871259 14.8285 0.00328638 14.5179 9.4666e-05 14.2009C-0.00309705 13.884 0.0744698 13.5717 0.2251 13.295L6.95775 0.930607ZM8.81157 1.6403C8.78089 1.58365 8.73603 1.53645 8.68162 1.50359C8.62722 1.47073 8.56524 1.4534 8.50212 1.4534C8.439 1.4534 8.37703 1.47073 8.32262 1.50359C8.26822 1.53645 8.22335 1.58365 8.19268 1.6403L1.46428 14.0047C1.43417 14.06 1.41865 14.1225 1.41928 14.1858C1.41991 14.2492 1.43665 14.3113 1.46785 14.366C1.49905 14.4206 1.54362 14.466 1.59715 14.4975C1.65068 14.529 1.7113 14.5457 1.77301 14.5457H15.2312C15.2929 14.5457 15.3536 14.529 15.4071 14.4975C15.4606 14.466 15.5052 14.4206 15.5364 14.366C15.5676 14.3113 15.5843 14.2492 15.585 14.1858C15.5856 14.1225 15.5701 14.06 15.54 14.0047L8.81157 1.6403Z" fill="white"/>
</svg>
