<svg width="28" height="26" viewBox="0 0 28 26" fill="none" xmlns="http://www.w3.org/2000/svg">
<path d="M27.5999 21.3316L16.6692 1.58867C16.3961 1.10498 16.0061 0.703923 15.5381 0.42526C15.07 0.146597 14.54 0 14.0006 0C13.4613 0 12.9313 0.146597 12.4632 0.42526C11.9951 0.703923 11.6052 1.10498 11.332 1.58867L0.40132 21.3316C0.138504 21.7994 0 22.3315 0 22.8734C0 23.4152 0.138504 23.9473 0.40132 24.4151C0.67097 24.9018 1.06025 25.305 1.52921 25.5835C1.99818 25.862 2.52994 26.0057 3.06993 25.9998H24.9313C25.4709 26.0052 26.0021 25.8613 26.4706 25.5828C26.9391 25.3044 27.328 24.9014 27.5974 24.4151C27.8606 23.9475 27.9996 23.4156 28 22.8737C28.0004 22.3319 27.8624 21.7996 27.5999 21.3316ZM13.0007 10.4C13.0007 10.1242 13.106 9.85963 13.2936 9.6646C13.4811 9.46956 13.7354 9.35999 14.0006 9.35999C14.2658 9.35999 14.5202 9.46956 14.7077 9.6646C14.8952 9.85963 15.0006 10.1242 15.0006 10.4V15.5999C15.0006 15.8758 14.8952 16.1403 14.7077 16.3353C14.5202 16.5304 14.2658 16.6399 14.0006 16.6399C13.7354 16.6399 13.4811 16.5304 13.2936 16.3353C13.106 16.1403 13.0007 15.8758 13.0007 15.5999V10.4ZM14.0006 21.8399C13.704 21.8399 13.414 21.7484 13.1673 21.577C12.9207 21.4056 12.7284 21.1619 12.6149 20.8769C12.5013 20.5918 12.4716 20.2782 12.5295 19.9755C12.5874 19.6729 12.7303 19.395 12.94 19.1768C13.1498 18.9586 13.417 18.8101 13.708 18.7499C13.999 18.6897 14.3005 18.7206 14.5746 18.8386C14.8487 18.9567 15.083 19.1567 15.2478 19.4132C15.4126 19.6697 15.5005 19.9713 15.5005 20.2799C15.5005 20.6936 15.3425 21.0904 15.0612 21.383C14.7799 21.6755 14.3984 21.8399 14.0006 21.8399Z" fill="#1565C0"/>
</svg>
