<svg width="26" height="23" viewBox="0 0 26 23" fill="none" xmlns="http://www.w3.org/2000/svg">
<path d="M13.0331 2.47548L12.7085 1.91473L12.3839 2.47548L2.34394 19.8222L2.01817 20.385H2.66849H22.7485H23.3988L23.0731 19.8222L13.0331 2.47548ZM0.686363 18.8646L0.686386 18.8645L10.7264 1.51789C10.7264 1.51788 10.7264 1.51786 10.7264 1.51785C11.6086 -0.00594968 13.8084 -0.00594968 14.6906 1.51785C14.6906 1.51786 14.6906 1.51788 14.6906 1.51789L24.7306 18.8645L24.7306 18.8646C25.6128 20.3882 24.5126 22.3017 22.7485 22.3017H2.66849C0.904438 22.3017 -0.195768 20.3882 0.686363 18.8646ZM11.7502 12.01V9.34333C11.7502 8.81711 12.1823 8.385 12.7085 8.385C13.2347 8.385 13.6668 8.81711 13.6668 9.34333V12.01C13.6668 12.5362 13.2347 12.9683 12.7085 12.9683C12.1823 12.9683 11.7502 12.5362 11.7502 12.01ZM13.6668 16.385V18.3017H11.7502V16.385H13.6668Z" fill="#A7ABC3" stroke="#A7ABC3" stroke-width="0.75"/>
</svg>
